<svg width="82" height="73" viewBox="0 0 82 73" fill="none" xmlns="http://www.w3.org/2000/svg">
<path d="M81.36 72.0408L-1.78814e-05 -2.86102e-06L81.36 -2.86102e-06L81.36 72.0408Z" fill="#F8475F"/>
<path d="M46.704 28.3909C45.552 28.3909 44.5493 28.1563 43.696 27.6869C42.8533 27.2069 42.2027 26.5349 41.744 25.6709C41.2853 24.7963 41.056 23.7723 41.056 22.5989C41.056 21.4256 41.2853 20.4069 41.744 19.5429C42.2027 18.6683 42.8533 17.9963 43.696 17.5269C44.5493 17.0576 45.552 16.8229 46.704 16.8229C47.856 16.8229 48.8533 17.0576 49.696 17.5269C50.5493 17.9963 51.2 18.6683 51.648 19.5429C52.1067 20.4069 52.336 21.4256 52.336 22.5989C52.336 23.7723 52.1067 24.7963 51.648 25.6709C51.1893 26.5349 50.5333 27.2069 49.68 27.6869C48.8373 28.1563 47.8453 28.3909 46.704 28.3909ZM46.704 26.1349C47.5573 26.1349 48.224 25.8363 48.704 25.2389C49.184 24.6309 49.424 23.7509 49.424 22.5989C49.424 21.4469 49.1787 20.5723 48.688 19.9749C48.208 19.3776 47.5467 19.0789 46.704 19.0789C45.8507 19.0789 45.184 19.3776 44.704 19.9749C44.224 20.5616 43.984 21.4363 43.984 22.5989C43.984 23.7616 44.224 24.6416 44.704 25.2389C45.184 25.8363 45.8507 26.1349 46.704 26.1349ZM55.5344 28.3429C55.097 28.3429 54.745 28.2096 54.4784 27.9429C54.2117 27.6763 54.0784 27.3243 54.0784 26.8869V18.3269C54.0784 17.8896 54.1957 17.5536 54.4304 17.3189C54.665 17.0843 55.001 16.9669 55.4384 16.9669H60.8144C61.2944 16.9669 61.6464 17.0629 61.8704 17.2549C62.0944 17.4363 62.2064 17.7296 62.2064 18.1349C62.2064 18.5296 62.089 18.8176 61.8544 18.9989C61.6304 19.1803 61.2837 19.2709 60.8144 19.2709H56.9744V21.3509H60.4944C60.9637 21.3509 61.3104 21.4469 61.5344 21.6389C61.769 21.8309 61.8864 22.1243 61.8864 22.5189C61.8864 22.9136 61.769 23.2016 61.5344 23.3829C61.3104 23.5643 60.9637 23.6549 60.4944 23.6549H56.9744V26.8869C56.9744 27.3349 56.841 27.6923 56.5744 27.9589C56.3184 28.2149 55.9717 28.3429 55.5344 28.3429ZM64.7844 28.3429C64.347 28.3429 63.995 28.2096 63.7284 27.9429C63.4617 27.6763 63.3284 27.3243 63.3284 26.8869V18.3269C63.3284 17.8896 63.4457 17.5536 63.6804 17.3189C63.915 17.0843 64.251 16.9669 64.6884 16.9669H70.0644C70.5444 16.9669 70.8964 17.0629 71.1204 17.2549C71.3444 17.4363 71.4564 17.7296 71.4564 18.1349C71.4564 18.5296 71.339 18.8176 71.1044 18.9989C70.8804 19.1803 70.5337 19.2709 70.0644 19.2709H66.2244V21.3509H69.7444C70.2137 21.3509 70.5604 21.4469 70.7844 21.6389C71.019 21.8309 71.1364 22.1243 71.1364 22.5189C71.1364 22.9136 71.019 23.2016 70.7844 23.3829C70.5604 23.5643 70.2137 23.6549 69.7444 23.6549H66.2244V26.8869C66.2244 27.3349 66.091 27.6923 65.8244 27.9589C65.5684 28.2149 65.2217 28.3429 64.7844 28.3429Z" fill="white"/>
</svg>
