<svg width="68" height="11" viewBox="0 0 68 11" fill="none" xmlns="http://www.w3.org/2000/svg">
<path fill-rule="evenodd" clip-rule="evenodd" d="M25.3896 4.45951L21.295 4.1332L19.6948 0.648987L18.0945 4.13846L14 4.45951L17.1093 6.94899L16.1754 10.649L19.6948 8.68583L23.2141 10.649L22.2859 6.94899L25.3896 4.45951ZM19.6948 7.70162L17.5535 8.89635L18.123 6.64372L16.2324 5.12793L18.7267 4.92793L19.6948 2.80688L20.6686 4.9332L23.1629 5.1332L21.2722 6.64899L21.8417 8.90162L19.6948 7.70162Z" fill="#F8475F"/>
<path fill-rule="evenodd" clip-rule="evenodd" d="M39.3896 4.45951L35.295 4.1332L33.6948 0.648987L32.0945 4.13846L28 4.45951L31.1093 6.94899L30.1754 10.649L33.6948 8.68583L37.2141 10.649L36.2859 6.94899L39.3896 4.45951ZM33.6948 7.70162L31.5535 8.89636L32.123 6.64373L30.2323 5.12794L32.7267 4.92794L33.6948 2.80688L34.6686 4.9332L37.1629 5.1332L35.2722 6.64899L35.8417 8.90162L33.6948 7.70162Z" fill="#F8475F"/>
<path fill-rule="evenodd" clip-rule="evenodd" d="M53.3896 4.45951L49.295 4.1332L47.6948 0.648987L46.0945 4.13846L42 4.45951L45.1093 6.94899L44.1754 10.649L47.6948 8.68583L51.2141 10.649L50.2859 6.94899L53.3896 4.45951ZM47.6948 7.70162L45.5535 8.89636L46.123 6.64373L44.2323 5.12794L46.7267 4.92794L47.6948 2.80688L48.6686 4.9332L51.1629 5.1332L49.2722 6.64899L49.8417 8.90162L47.6948 7.70162Z" fill="#F8475F"/>
<path fill-rule="evenodd" clip-rule="evenodd" d="M67.3896 4.45951L63.295 4.1332L61.6948 0.648987L60.0945 4.13846L56 4.45951L59.1093 6.94899L58.1754 10.649L61.6948 8.68583L65.2141 10.649L64.2859 6.94899L67.3896 4.45951ZM61.6948 7.70162L59.5535 8.89636L60.123 6.64373L58.2323 5.12794L60.7267 4.92794L61.6948 2.80688L62.6686 4.9332L65.1629 5.1332L63.2722 6.64899L63.8417 8.90162L61.6948 7.70162Z" fill="#F8475F"/>
<path fill-rule="evenodd" clip-rule="evenodd" d="M5.69478 8.68583L9.21415 10.649L8.28021 6.94899L11.3896 4.45951L7.29501 4.13846L5.69478 0.648987L4.09454 4.13846L0 4.45951L3.10935 6.94899L2.17541 10.649L5.69478 8.68583Z" fill="#F8475F"/>
</svg>
